<svg width="28" height="28" viewBox="0 0 28 28" fill="none" xmlns="http://www.w3.org/2000/svg">
<path d="M0 14C0 6.26801 6.26801 0 14 0C21.732 0 28 6.26801 28 14C28 21.732 21.732 28 14 28C6.26801 28 0 21.732 0 14Z" fill="#3F00A6"/>
<path fill-rule="evenodd" clip-rule="evenodd" d="M5.68994 13.375C6.00955 9.06456 9.60806 5.66669 14.0002 5.66669C13.3078 5.66669 12.6913 5.97019 12.1842 6.43429C11.6796 6.89606 11.2532 7.54067 10.9083 8.30265C10.5613 9.06912 10.2919 9.96559 10.1095 10.9384C9.96325 11.7183 9.87427 12.5404 9.84461 13.375H5.68994ZM5.68994 14.625H9.84461C9.87427 15.4596 9.96325 16.2817 10.1095 17.0616C10.2919 18.0345 10.5613 18.9309 10.9083 19.6974C11.2532 20.4594 11.6796 21.104 12.1842 21.5657C12.6913 22.0298 13.3078 22.3334 14.0002 22.3334C9.60806 22.3334 6.00955 18.9355 5.68994 14.625Z" fill="white"/>
<path d="M14.0002 6.82948C13.771 6.82948 13.475 6.92699 13.1307 7.24203C12.7839 7.5594 12.4367 8.05681 12.13 8.7345C11.8252 9.40769 11.5778 10.2204 11.4076 11.1285C11.2735 11.8437 11.1903 12.6018 11.1611 13.375H16.8393C16.8101 12.6018 16.7269 11.8437 16.5928 11.1285C16.4226 10.2204 16.1751 9.40769 15.8704 8.7345C15.5637 8.05681 15.2165 7.55941 14.8697 7.24203C14.5254 6.92699 14.2294 6.82948 14.0002 6.82948Z" fill="white"/>
<path d="M11.4076 16.8715C11.5778 17.7797 11.8252 18.5923 12.13 19.2655C12.4367 19.9432 12.7839 20.4406 13.1307 20.758C13.475 21.073 13.771 21.1706 14.0002 21.1706C14.2294 21.1706 14.5254 21.073 14.8697 20.758C15.2165 20.4406 15.5637 19.9432 15.8704 19.2655C16.1751 18.5924 16.4226 17.7797 16.5928 16.8715C16.7269 16.1563 16.8101 15.3982 16.8393 14.625H11.1611C11.1903 15.3982 11.2735 16.1563 11.4076 16.8715Z" fill="white"/>
<path d="M14.0002 5.66669C14.6926 5.66669 15.309 5.97019 15.8162 6.43429C16.3208 6.89607 16.7472 7.54067 17.0921 8.30265C17.439 9.06912 17.7085 9.96559 17.8909 10.9384C18.0371 11.7183 18.1261 12.5404 18.1558 13.375H22.3104C21.9908 9.06456 18.3923 5.66669 14.0002 5.66669Z" fill="white"/>
<path d="M17.8909 17.0616C17.7085 18.0345 17.439 18.9309 17.0921 19.6974C16.7472 20.4594 16.3208 21.104 15.8162 21.5657C15.309 22.0298 14.6926 22.3334 14.0002 22.3334C18.3923 22.3334 21.9908 18.9355 22.3104 14.625H18.1558C18.1261 15.4596 18.0371 16.2817 17.8909 17.0616Z" fill="white"/>
</svg>
