<svg width="28" height="28" viewBox="0 0 28 28" fill="none" xmlns="http://www.w3.org/2000/svg">
<path d="M0 14C0 6.26801 6.26801 0 14 0C21.732 0 28 6.26801 28 14C28 21.732 21.732 28 14 28C6.26801 28 0 21.732 0 14Z" fill="#4F00D0"/>
<path d="M11.9167 5.66669C11.2263 5.66669 10.6667 6.22633 10.6667 6.91669V7.75002C10.6667 8.44038 11.2263 9.00002 11.9167 9.00002H16.0833C16.7737 9.00002 17.3333 8.44038 17.3333 7.75002V6.91669C17.3333 6.22633 16.7737 5.66669 16.0833 5.66669H11.9167Z" fill="white"/>
<path fill-rule="evenodd" clip-rule="evenodd" d="M9.41667 7.36387C8.36841 7.42268 7.70665 7.58972 7.23223 8.06414C6.5 8.79637 6.5 9.97488 6.5 12.3319V17.3319C6.5 19.6889 6.5 20.8674 7.23223 21.5997C7.96447 22.3319 9.14298 22.3319 11.5 22.3319H16.5C18.857 22.3319 20.0355 22.3319 20.7678 21.5997C21.5 20.8674 21.5 19.6889 21.5 17.3319V12.3319C21.5 9.97488 21.5 8.79637 20.7678 8.06414C20.2933 7.58972 19.6316 7.42268 18.5833 7.36387V7.75002C18.5833 9.13073 17.464 10.25 16.0833 10.25H11.9167C10.536 10.25 9.41667 9.13073 9.41667 7.75002V7.36387ZM16.9265 14.4569C17.1788 14.2214 17.1924 13.8259 16.9569 13.5736C16.7214 13.3212 16.3259 13.3076 16.0736 13.5431L12.9286 16.4784L11.9265 15.5431C11.6741 15.3076 11.2786 15.3212 11.0431 15.5736C10.8076 15.8259 10.8212 16.2214 11.0736 16.4569L12.5021 17.7903C12.7423 18.0144 13.1149 18.0144 13.355 17.7903L16.9265 14.4569Z" fill="white"/>
</svg>
