<svg width="28" height="28" viewBox="0 0 28 28" fill="none" xmlns="http://www.w3.org/2000/svg">
<path d="M0 14C0 6.26801 6.26801 0 14 0C21.732 0 28 6.26801 28 14C28 21.732 21.732 28 14 28C6.26801 28 0 21.732 0 14Z" fill="#3F00A6"/>
<path fill-rule="evenodd" clip-rule="evenodd" d="M22.3332 14C22.3332 18.6024 18.6022 22.3334 13.9998 22.3334C9.39746 22.3334 5.6665 18.6024 5.6665 14C5.6665 9.39765 9.39746 5.66669 13.9998 5.66669C18.6022 5.66669 22.3332 9.39765 22.3332 14ZM17.3584 11.4747C17.6025 11.7188 17.6025 12.1146 17.3584 12.3586L13.1918 16.5253C12.9477 16.7694 12.552 16.7694 12.3079 16.5253L10.6412 14.8586C10.3972 14.6146 10.3972 14.2188 10.6412 13.9747C10.8853 13.7307 11.281 13.7307 11.5251 13.9747L12.7498 15.1995L14.6122 13.3371L16.4746 11.4747C16.7186 11.2307 17.1144 11.2307 17.3584 11.4747Z" fill="white"/>
</svg>
